M48
; DRILL file {KiCad 9.0.4} date 2026-01-21T13:19:51-0300
; FORMAT={-:-/ absolute / metric / decimal}
; #@! TF.CreationDate,2026-01-21T13:19:51-03:00
; #@! TF.GenerationSoftware,Kicad,Pcbnew,9.0.4
; #@! TF.FileFunction,Plated,1,2,PTH
FMAT,2
METRIC
; #@! TA.AperFunction,Plated,PTH,ViaDrill
T1C0.800
; #@! TA.AperFunction,Plated,PTH,ComponentDrill
T2C0.800
; #@! TA.AperFunction,Plated,PTH,ComponentDrill
T3C1.000
; #@! TA.AperFunction,Plated,PTH,ComponentDrill
T4C1.020
; #@! TA.AperFunction,Plated,PTH,ComponentDrill
T5C1.300
%
G90
G05
T1
X145.45Y-129.28
X145.55Y-121.21
X152.69Y-141.37
X155.65Y-130.44
X156.07Y-122.32
X159.23Y-141.96
X161.077Y-129.968
X161.8Y-141.96
X164.13Y-99.11
X164.37Y-141.96
X166.02Y-103.59
X166.94Y-141.96
X169.8Y-103.29
X175.41Y-80.76
X176.79Y-116.03
X180.69Y-92.65
X181.63Y-105.58
X184.59Y-99.0
X187.72Y-126.86
X188.32Y-105.58
X209.57Y-109.01
X209.69Y-105.2
X215.11Y-105.2
X221.17Y-107.77
X225.43Y-152.18
X234.37Y-111.35
X234.37Y-118.85
X237.34Y-101.49
X239.6Y-104.21
X239.6Y-107.67
X239.6Y-118.84
X246.09Y-107.67
X248.35Y-101.68
X251.03Y-104.21
T2
X148.12Y-55.33
X148.12Y-65.49
X152.93Y-55.33
X152.93Y-68.03
X157.68Y-55.33
X157.68Y-68.03
X164.31Y-55.33
X164.31Y-65.49
X168.59Y-55.33
X168.59Y-68.03
X169.41Y-139.19
X173.94Y-55.33
X173.94Y-68.03
X174.41Y-139.19
X179.38Y-116.79
X179.76Y-146.04
X179.76Y-151.04
X179.85Y-55.33
X179.85Y-65.49
X181.037Y-139.97
X184.38Y-116.79
X184.64Y-55.33
X184.64Y-68.03
X186.117Y-139.97
X190.08Y-55.33
X190.08Y-68.03
X192.26Y-119.71
X192.26Y-122.25
X192.26Y-124.79
X196.31Y-55.33
X196.31Y-65.49
X201.07Y-55.33
X201.07Y-68.03
X202.79Y-133.59
X202.79Y-136.09
X206.39Y-55.33
X206.39Y-68.03
X210.07Y-133.59
X210.07Y-138.59
X212.27Y-93.4
X212.35Y-55.33
X212.35Y-65.49
X217.27Y-93.4
X217.35Y-55.33
X217.35Y-68.03
X222.65Y-55.33
X222.65Y-68.03
X224.0Y-79.27
X224.0Y-89.43
X228.8Y-76.73
X228.8Y-89.43
X228.84Y-146.66
X228.93Y-55.33
X228.93Y-65.49
X233.76Y-55.33
X233.76Y-68.03
X234.01Y-76.73
X234.01Y-89.43
X238.85Y-55.33
X238.85Y-68.03
X239.17Y-79.27
X239.17Y-89.43
X241.54Y-146.66
X245.03Y-76.73
X245.03Y-89.43
X246.11Y-93.37
X250.12Y-76.73
X250.12Y-89.43
X251.11Y-93.37
X258.8Y-133.7
X258.8Y-138.7
X258.81Y-122.92
X258.81Y-127.92
X267.01Y-133.63
X267.01Y-136.13
T3
X145.47Y-125.5
X148.01Y-125.5
X150.55Y-125.5
X153.09Y-125.5
X155.63Y-125.5
X158.17Y-125.5
X159.26Y-148.24
X160.71Y-125.5
X161.8Y-148.24
X163.25Y-125.5
X164.34Y-148.24
X165.79Y-125.5
X166.88Y-148.24
X168.33Y-125.5
X169.42Y-148.24
X170.87Y-125.5
X171.96Y-148.24
X173.41Y-125.5
X175.95Y-125.5
X178.49Y-125.5
X181.03Y-125.5
X183.57Y-125.5
X186.7Y-148.36
X189.24Y-148.36
X191.78Y-148.36
X194.32Y-148.36
X196.86Y-148.36
X199.4Y-148.36
X199.8Y-98.04
X202.34Y-98.04
X204.88Y-98.04
X207.42Y-98.04
X209.96Y-98.04
X212.5Y-98.04
X214.08Y-120.64
X214.08Y-138.64
X215.04Y-98.04
X217.58Y-98.04
X220.12Y-98.04
X222.66Y-98.04
X228.19Y-98.04
X230.73Y-98.04
X232.57Y-150.98
X233.27Y-98.04
X235.11Y-150.98
X235.81Y-98.04
X237.65Y-150.98
X238.35Y-98.04
X240.89Y-98.04
X243.43Y-98.04
X245.97Y-98.04
X248.51Y-98.04
X251.05Y-98.04
X254.08Y-120.64
X254.08Y-138.64
T4
X148.89Y-87.33
X148.89Y-112.73
X151.43Y-87.33
X151.43Y-112.73
X153.97Y-87.33
X153.97Y-112.73
X156.51Y-87.33
X156.51Y-112.73
X159.05Y-87.33
X159.05Y-112.73
X161.59Y-87.33
X161.59Y-112.73
X164.13Y-87.33
X164.13Y-112.73
X166.67Y-87.33
X166.67Y-112.73
X169.21Y-87.33
X169.21Y-112.73
X171.75Y-87.33
X171.75Y-112.73
X174.29Y-87.33
X174.29Y-112.73
X176.83Y-87.33
X176.83Y-112.73
X179.37Y-87.33
X179.37Y-112.73
X181.91Y-87.33
X181.91Y-112.73
X184.45Y-87.33
X184.45Y-112.73
T5
X151.21Y-45.76
X156.21Y-45.76
X162.72Y-45.76
X167.72Y-45.76
X174.233Y-45.76
X179.233Y-45.76
X185.737Y-45.76
X190.737Y-45.76
X197.24Y-45.76
X202.24Y-45.76
X208.743Y-45.76
X213.743Y-45.76
X220.247Y-45.76
X225.247Y-45.76
X231.75Y-45.76
X236.75Y-45.76
X248.97Y-148.03
X253.97Y-148.03
M30
